<?xml version="1.0" encoding="UTF-8" standalone="no"?>
<!-- Created with Inkscape (http://www.inkscape.org/) -->

<svg
   xmlns:osb="http://www.openswatchbook.org/uri/2009/osb"
   xmlns:dc="http://purl.org/dc/elements/1.1/"
   xmlns:cc="http://creativecommons.org/ns#"
   xmlns:rdf="http://www.w3.org/1999/02/22-rdf-syntax-ns#"
   xmlns:svg="http://www.w3.org/2000/svg"
   xmlns="http://www.w3.org/2000/svg"
   xmlns:sodipodi="http://sodipodi.sourceforge.net/DTD/sodipodi-0.dtd"
   xmlns:inkscape="http://www.inkscape.org/namespaces/inkscape"
   width="675"
   height="325"
   id="svg2985"
   version="1.1"
   inkscape:version="0.48.5 r10040"
   sodipodi:docname="logo_full.svg">
  <defs
     id="defs2987">
    <linearGradient
       id="linearGradient3841"
       osb:paint="gradient">
      <stop
         style="stop-color:#607d8b;stop-opacity:1;"
         offset="0"
         id="stop3843" />
      <stop
         style="stop-color:#607d8b;stop-opacity:0;"
         offset="1"
         id="stop3845" />
    </linearGradient>
    <filter
       inkscape:label="Drop Shadow"
       id="filter4485"
       color-interpolation-filters="sRGB">
      <feFlood
         flood-opacity="0.5"
         flood-color="rgb(0,0,0)"
         result="flood"
         id="feFlood4487" />
      <feComposite
         in="flood"
         in2="SourceGraphic"
         operator="in"
         result="composite1"
         id="feComposite4489" />
      <feGaussianBlur
         stdDeviation="5"
         result="blur"
         id="feGaussianBlur4491" />
      <feOffset
         dx="1"
         dy="1"
         result="offset"
         id="feOffset4493" />
      <feComposite
         in="SourceGraphic"
         in2="offset"
         operator="over"
         result="composite2"
         id="feComposite4495" />
    </filter>
    <filter
       inkscape:label="Inner Glow"
       inkscape:menu="Shadows and Glows"
       inkscape:menu-tooltip="Adds a colorizable glow inside"
       color-interpolation-filters="sRGB"
       id="filter3878">
      <feGaussianBlur
         stdDeviation="5"
         result="result8"
         id="feGaussianBlur3880" />
      <feComposite
         result="result6"
         in="SourceGraphic"
         operator="in"
         in2="result8"
         id="feComposite3882" />
      <feComposite
         operator="in"
         result="result11"
         in2="result6"
         id="feComposite3884" />
      <feFlood
         result="result10"
         in="result11"
         flood-opacity="0.75"
         flood-color="rgb(63,81,181)"
         id="feFlood3886" />
      <feBlend
         mode="screen"
         in="result11"
         in2="result10"
         result="result12"
         id="feBlend3888" />
      <feComposite
         result="result2"
         operator="in"
         in2="SourceGraphic"
         in="result12"
         id="feComposite3890" />
    </filter>
    <filter
       inkscape:label="Drop Shadow"
       id="filter3034-2"
       color-interpolation-filters="sRGB">
      <feFlood
         flood-opacity="0.75098814229249011"
         flood-color="rgb(255,255,255)"
         result="flood"
         id="feFlood3036-2" />
      <feComposite
         in="flood"
         in2="SourceGraphic"
         operator="in"
         result="composite1"
         id="feComposite3038-6" />
      <feGaussianBlur
         stdDeviation="2"
         result="blur"
         id="feGaussianBlur3040-0" />
      <feOffset
         dx="2"
         dy="2"
         result="offset"
         id="feOffset3042-5" />
      <feComposite
         in="SourceGraphic"
         in2="offset"
         operator="over"
         result="composite2"
         id="feComposite3044-9" />
    </filter>
    <style
       type="text/css"
       id="style57">
    @font-face {
    font-family: 'Register';
    font-style: normal;
    font-weight: 400;
    src: url(&quot;register.eot&quot;);
    src: local('Register'),
    local('Register'),
    url(&quot;register.woff2&quot;) format('woff2'),
    url(&quot;register.ttf&quot;) format('truetype'),
    url('register.otf') format('otf');
    }
   </style>
  </defs>
  <sodipodi:namedview
     id="base"
     pagecolor="#ffffff"
     bordercolor="#666666"
     borderopacity="1.0"
     inkscape:pageopacity="0.0"
     inkscape:pageshadow="2"
     inkscape:zoom="1.4142136"
     inkscape:cx="241.02043"
     inkscape:cy="222.65414"
     inkscape:current-layer="g3864"
     inkscape:document-units="px"
     showgrid="false"
     inkscape:window-width="1440"
     inkscape:window-height="852"
     inkscape:window-x="0"
     inkscape:window-y="25"
     inkscape:window-maximized="1"
     showguides="false"
     inkscape:guide-bbox="true"
     objecttolerance="20"
     fit-margin-top="0"
     fit-margin-left="0"
     fit-margin-right="0"
     fit-margin-bottom="0"
     inkscape:showpageshadow="false"
     showborder="true">
    <sodipodi:guide
       orientation="1,0"
       position="317.48352,207.04712"
       id="guide3048" />
    <sodipodi:guide
       orientation="1,0"
       position="387.48352,153.29712"
       id="guide3050" />
    <sodipodi:guide
       orientation="1,0"
       position="247.48352,187.04712"
       id="guide3052" />
    <sodipodi:guide
       orientation="0,1"
       position="230.27188,176.18345"
       id="guide3040" />
    <sodipodi:guide
       orientation="0,1"
       position="290.0224,105.82632"
       id="guide3042" />
  </sodipodi:namedview>
  <metadata
     id="metadata2990">
    <rdf:RDF>
      <cc:Work
         rdf:about="">
        <dc:format>image/svg+xml</dc:format>
        <dc:type
           rdf:resource="http://purl.org/dc/dcmitype/StillImage" />
        <dc:title />
        <cc:license
           rdf:resource="http://creativecommons.org/licenses/by-nc-sa/3.0/" />
      </cc:Work>
      <cc:License
         rdf:about="http://creativecommons.org/licenses/by-nc-sa/3.0/">
        <cc:permits
           rdf:resource="http://creativecommons.org/ns#Reproduction" />
        <cc:permits
           rdf:resource="http://creativecommons.org/ns#Distribution" />
        <cc:requires
           rdf:resource="http://creativecommons.org/ns#Notice" />
        <cc:requires
           rdf:resource="http://creativecommons.org/ns#Attribution" />
        <cc:prohibits
           rdf:resource="http://creativecommons.org/ns#CommercialUse" />
        <cc:permits
           rdf:resource="http://creativecommons.org/ns#DerivativeWorks" />
        <cc:requires
           rdf:resource="http://creativecommons.org/ns#ShareAlike" />
      </cc:License>
    </rdf:RDF>
  </metadata>
  <g
     inkscape:groupmode="layer"
     id="layer2"
     inkscape:label="Trazo"
     transform="translate(-2.5164841,-106.54713)">
    <path
       style="fill:#3f51b5;fill-opacity:1;fill-rule:evenodd;stroke:none;filter:url(#filter4485)"
       d="m 50.016484,128.39088 c -13.7906,0 -23.73383,2.70821 -22.3125,6.09375 l 55.40625,132.03125 c 0.568847,1.35497 2.901995,2.58263 6.34375,3.59375 l 0,-2.0625 c 0,-11.04839 11.222306,-20.03125 25.062496,-20.03125 l 3.71875,0 0,-51.6875 c 0,-30.95746 27.91708,-56.0625 62.34375,-56.0625 l 22.8125,0 c 34.42579,0 62.34375,25.10504 62.34375,56.0625 l 0,51.6875 3.71875,0 c 13.8402,0 25.0625,8.98286 25.0625,20.03125 l 0,4.5625 340.46875,0 c 13.7906,0 23.73383,-2.70821 22.3125,-6.09375 L 601.89148,134.48463 c -1.42133,-3.38554 -13.67815,-6.09375 -27.46875,-6.09375 l -524.406246,0 z"
       id="path3862" />
    <path
       style="fill:#3f51b5;fill-opacity:1;fill-rule:evenodd;stroke:none;filter:url(#filter4485)"
       d="m 294.51648,272.60963 -183.9375,0 c -8.27129,0 -15.967135,-0.98472 -21.124996,-2.5 l 0,121.59375 c 0,11.04839 11.222306,20 25.062496,20 l 154.9375,0 c 13.8402,0 25.0625,-8.95161 25.0625,-20 l 0,-119.09375 z"
       id="path3860" />
    <path
       style="fill:#ffffff;fill-opacity:1;fill-rule:evenodd;stroke:none;filter:url(#filter3878);opacity:1"
       d="m 184.98523,163.20338 c -21.06495,0 -38.125,16.36463 -38.125,36.5625 l 0,48.25 90.25,0 0,-48.25 c 0,-20.19787 -17.06004,-36.5625 -38.125,-36.5625 l -14,0 z"
       id="rect4164" />
    <path
       id="path4152"
       d="m 180.59375,140.28125 c -34.42667,0 -62.34375,25.10504 -62.34375,56.0625 l 0,51.6875 -3.71875,0 c -13.8402,0 -25.0625,8.98286 -25.0625,20.03125 l 0,123.65625 c 0,11.04839 11.2223,20 25.0625,20 l 154.9375,0 c 13.8402,0 25.0625,-8.95161 25.0625,-20 l 0,-123.65625 c 0,-11.04839 -11.2223,-20.03125 -25.0625,-20.03125 l -3.71875,0 0,-51.6875 c 0,-30.95746 -27.91796,-56.0625 -62.34375,-56.0625 l -22.8125,0 z m 4.40625,22.9375 14,0 c 21.06496,0 38.125,16.36463 38.125,36.5625 l 0,48.25 -90.25,0 0,-48.25 c 0,-20.19787 17.06004,-36.5625 38.125,-36.5625 z"
       style="fill:#e6e6e6;stroke:#ffffff;stroke-width:1;stroke-miterlimit:4;stroke-dasharray:none;stroke-linejoin:round;stroke-opacity:1"
       inkscape:connector-curvature="0" />
    <path
       d="m 106.87694,320.46931 q -1.35333,-0.76493 -1.7505,-2.28006 -0.39717,-1.51514 0.36775,-2.86846 l 1.88289,-3.23621 q 0.76492,-1.35333 2.28006,-1.7505 1.51513,-0.39717 2.86846,0.36775 l 7.82574,4.50128 0,-9.03197 q 0,-1.52985 1.11797,-2.64781 1.11796,-1.11797 2.6478,-1.11797 l 3.76578,0 q 1.52984,0 2.64781,1.11797 1.11796,1.11796 1.11796,2.64781 l 0,9.03197 7.82575,-4.50128 q 1.35332,-0.76492 2.86846,-0.36775 1.51514,0.39717 2.28006,1.7505 l 1.88288,3.23621 q 0.76493,1.35332 0.36776,2.86846 -0.39717,1.51513 -1.7505,2.28006 L 137.29732,325 l 7.82575,4.5307 q 1.35333,0.76492 1.7505,2.28005 0.39717,1.51514 -0.36776,2.86846 l -1.88288,3.23621 q -0.76492,1.35333 -2.28006,1.7505 -1.51514,0.39717 -2.86846,-0.36775 l -7.82575,-4.50128 0,9.03197 q 0,1.52985 -1.11796,2.64781 -1.11797,1.11797 -2.64781,1.11797 l -3.76578,0 q -1.52984,0 -2.6478,-1.11797 -1.11797,-1.11796 -1.11797,-2.64781 l 0,-9.03197 -7.82574,4.50128 q -1.35333,0.76492 -2.86846,0.36775 -1.51514,-0.39717 -2.28006,-1.7505 l -1.88289,-3.23621 q -0.76492,-1.35332 -0.36775,-2.86846 0.39717,-1.51513 1.7505,-2.28005 L 114.70268,325 z"
       id="path3041"
       inkscape:connector-curvature="0"
       style="fill:#cccccc;fill-opacity:1;stroke:#cccccc;stroke-width:0.14366552;stroke-miterlimit:4;stroke-dasharray:none" />
    <path
       d="m 187.46931,344.12306 q -0.76492,1.35333 -2.28006,1.7505 -1.51513,0.39717 -2.86846,-0.36776 l -3.23621,-1.88288 q -1.35333,-0.76492 -1.75049,-2.28006 -0.39718,-1.51513 0.36774,-2.86846 l 4.50128,-7.82574 -9.03197,0 q -1.52984,0 -2.64781,-1.11797 -1.11797,-1.11796 -1.11797,-2.64781 l 0,-3.76577 q 0,-1.52984 1.11797,-2.64781 1.11797,-1.11796 2.64781,-1.11796 l 9.03197,0 -4.50128,-7.82575 q -0.76492,-1.35332 -0.36774,-2.86845 0.39716,-1.51514 1.75049,-2.28006 l 3.23621,-1.88289 q 1.35333,-0.76492 2.86846,-0.36775 1.51514,0.39717 2.28006,1.7505 l 4.53069,7.82574 4.5307,-7.82574 q 0.76492,-1.35333 2.28005,-1.7505 1.51514,-0.39717 2.86846,0.36775 l 3.23621,1.88289 q 1.35333,0.76492 1.7505,2.28006 0.39717,1.51513 -0.36775,2.86845 l -4.50128,7.82575 9.03197,0 q 1.52985,0 2.64782,1.11796 1.11796,1.11797 1.11796,2.64781 l 0,3.76577 q 0,1.52985 -1.11796,2.64781 -1.11797,1.11797 -2.64782,1.11797 l -9.03197,0 4.50128,7.82574 q 0.76492,1.35333 0.36775,2.86846 -0.39717,1.51514 -1.7505,2.28006 l -3.23621,1.88288 q -1.35332,0.76493 -2.86846,0.36776 -1.51513,-0.39717 -2.28005,-1.7505 L 192,336.29732 z"
       id="path3041-6"
       inkscape:connector-curvature="0"
       style="fill:#607d8b;fill-opacity:1;stroke:#cccccc;stroke-width:0.14366552;stroke-miterlimit:4;stroke-dasharray:none" />
    <path
       d="m 238.92424,320.46931 q -1.35333,-0.76492 -1.75049,-2.28006 -0.39717,-1.51513 0.36775,-2.86846 l 1.88288,-3.23621 q 0.76493,-1.35333 2.28006,-1.75049 1.51514,-0.39718 2.86846,0.36774 l 7.82575,4.50128 0,-9.03197 q 0,-1.52984 1.11796,-2.64781 1.11796,-1.11797 2.64781,-1.11797 l 3.76577,0 q 1.52984,0 2.64781,1.11797 1.11797,1.11797 1.11797,2.64781 l 0,9.03197 7.82574,-4.50128 q 1.35332,-0.76492 2.86846,-0.36774 1.51513,0.39716 2.28006,1.75049 l 1.88289,3.23621 q 0.76491,1.35333 0.36774,2.86846 -0.39717,1.51514 -1.75049,2.28006 L 269.34462,325 l 7.82575,4.5307 q 1.35332,0.76492 1.75049,2.28005 0.39717,1.51514 -0.36774,2.86846 l -1.88289,3.23621 q -0.76493,1.35333 -2.28006,1.7505 -1.51514,0.39717 -2.86846,-0.36775 l -7.82574,-4.50128 0,9.03197 q 0,1.52985 -1.11797,2.64781 -1.11797,1.11797 -2.64781,1.11797 l -3.76577,0 q -1.52985,0 -2.64781,-1.11797 -1.11796,-1.11796 -1.11796,-2.64781 l 0,-9.03197 -7.82575,4.50128 q -1.35332,0.76492 -2.86846,0.36775 -1.51513,-0.39717 -2.28006,-1.7505 l -1.88288,-3.23621 q -0.76492,-1.35332 -0.36775,-2.86846 0.39716,-1.51513 1.75049,-2.28005 L 246.74999,325 z"
       id="path3041-1"
       inkscape:connector-curvature="0"
       style="fill:#3f51b5;fill-opacity:1;stroke:#cccccc;stroke-width:0.14366552;stroke-miterlimit:4;stroke-dasharray:none" />
    <rect
       style="opacity:0.50000000000000000;fill:#ffffff;fill-opacity:1;fill-rule:evenodd;stroke:#cccccc;stroke-width:1.01193643000000000;stroke-linecap:round;stroke-linejoin:round;stroke-miterlimit:4;stroke-opacity:1;stroke-dasharray:none;stroke-dashoffset:0;filter:url(#filter3878)"
       id="rect3044"
       width="191.49452"
       height="68.371681"
       x="96.257629"
       y="291.35638"
       rx="15.806274"
       ry="14.576706" />
  </g>
  <g
     inkscape:groupmode="layer"
     id="layer3"
     inkscape:label="Texto"
     transform="translate(-2.5164841,-106.54713)">
    <g
       id="g3864">
      <text
         xml:space="preserve"
         style="font-size:40px;font-style:normal;font-weight:normal;line-height:125%;letter-spacing:0px;word-spacing:0px;fill:#ffffff;fill-opacity:1;stroke:none;font-family:Register;filter:url(#filter3034-2)"
         x="285.3916"
         y="213.39413"
         id="text4744"
         sodipodi:linespacing="125%"><tspan
           sodipodi:role="line"
           id="tspan4746"
           x="285.3916"
           y="213.39413"
           style="font-size:56px;font-style:italic;font-variant:normal;font-weight:normal;font-stretch:normal;letter-spacing:1.21000003999999994px;fill:#ffffff;fill-opacity:1;font-family:Register;-inkscape-font-specification:Register Italic">#sysPass</tspan></text>
      <text
         sodipodi:linespacing="125%"
         id="text5277"
         y="233.61017"
         x="436.92841"
         style="font-size:12px;font-style:normal;font-weight:normal;line-height:125%;letter-spacing:0px;word-spacing:0px;opacity:0.85;fill:#ffffff;fill-opacity:1;stroke:none;font-family:Sans"
         xml:space="preserve"><tspan
           style="font-style:normal;font-variant:normal;font-weight:normal;font-stretch:normal;fill:#ffffff;fill-opacity:1;font-family:Roboto;-inkscape-font-specification:Roboto"
           y="233.61017"
           x="436.92841"
           id="tspan5279"
           sodipodi:role="line">Systems Password Manager</tspan></text>
    </g>
  </g>
</svg>
