<?xml version="1.0" encoding="UTF-8" standalone="no"?>
<!-- Created with Inkscape (http://www.inkscape.org/) -->

<svg
   xmlns:osb="http://www.openswatchbook.org/uri/2009/osb"
   xmlns:dc="http://purl.org/dc/elements/1.1/"
   xmlns:cc="http://creativecommons.org/ns#"
   xmlns:rdf="http://www.w3.org/1999/02/22-rdf-syntax-ns#"
   xmlns:svg="http://www.w3.org/2000/svg"
   xmlns="http://www.w3.org/2000/svg"
   xmlns:sodipodi="http://sodipodi.sourceforge.net/DTD/sodipodi-0.dtd"
   xmlns:inkscape="http://www.inkscape.org/namespaces/inkscape"
   width="675"
   height="325"
   id="svg2985"
   version="1.1"
   inkscape:version="0.91 r13725"
   sodipodi:docname="logo_full.svg">
  <defs
     id="defs2987">
    <linearGradient
       id="linearGradient3841"
       osb:paint="gradient">
      <stop
         style="stop-color:#607d8b;stop-opacity:1;"
         offset="0"
         id="stop3843" />
      <stop
         style="stop-color:#607d8b;stop-opacity:0;"
         offset="1"
         id="stop3845" />
    </linearGradient>
    <filter
       inkscape:label="Drop Shadow"
       id="filter4485"
       color-interpolation-filters="sRGB">
      <feFlood
         flood-opacity="0.5"
         flood-color="rgb(0,0,0)"
         result="flood"
         id="feFlood4487" />
      <feComposite
         in="flood"
         in2="SourceGraphic"
         operator="in"
         result="composite1"
         id="feComposite4489" />
      <feGaussianBlur
         stdDeviation="5"
         result="blur"
         id="feGaussianBlur4491" />
      <feOffset
         dx="1"
         dy="1"
         result="offset"
         id="feOffset4493" />
      <feComposite
         in="SourceGraphic"
         in2="offset"
         operator="over"
         result="composite2"
         id="feComposite4495" />
    </filter>
    <filter
       inkscape:label="Inner Glow"
       inkscape:menu="Shadows and Glows"
       inkscape:menu-tooltip="Adds a colorizable glow inside"
       color-interpolation-filters="sRGB"
       id="filter3878">
      <feGaussianBlur
         stdDeviation="5"
         result="result8"
         id="feGaussianBlur3880" />
      <feComposite
         result="result6"
         in="SourceGraphic"
         operator="in"
         in2="result8"
         id="feComposite3882" />
      <feComposite
         operator="in"
         result="result11"
         in2="result6"
         id="feComposite3884" />
      <feFlood
         result="result10"
         in="result11"
         flood-opacity="0.75"
         flood-color="rgb(63,81,181)"
         id="feFlood3886" />
      <feBlend
         mode="screen"
         in="result11"
         in2="result10"
         result="result12"
         id="feBlend3888" />
      <feComposite
         result="result2"
         operator="in"
         in2="SourceGraphic"
         in="result12"
         id="feComposite3890" />
    </filter>
    <filter
       inkscape:label="Drop Shadow"
       id="filter3034-2"
       color-interpolation-filters="sRGB">
      <feFlood
         flood-opacity="0.75098814229249011"
         flood-color="rgb(255,255,255)"
         result="flood"
         id="feFlood3036-2" />
      <feComposite
         in="flood"
         in2="SourceGraphic"
         operator="in"
         result="composite1"
         id="feComposite3038-6" />
      <feGaussianBlur
         stdDeviation="2"
         result="blur"
         id="feGaussianBlur3040-0" />
      <feOffset
         dx="2"
         dy="2"
         result="offset"
         id="feOffset3042-5" />
      <feComposite
         in="SourceGraphic"
         in2="offset"
         operator="over"
         result="composite2"
         id="feComposite3044-9" />
    </filter>
    <style
       type="text/css"
       id="style57">
    @font-face {
    font-family: 'Register';
    font-style: normal;
    font-weight: 400;
    src: url(&quot;register.eot&quot;);
    src: local('Register'),
    local('Register'),
    url(&quot;register.woff2&quot;) format('woff2'),
    url(&quot;register.ttf&quot;) format('truetype'),
    url('register.otf') format('otf');
    }
   </style>
  </defs>
  <sodipodi:namedview
     id="base"
     pagecolor="#ffffff"
     bordercolor="#666666"
     borderopacity="1.0"
     inkscape:pageopacity="0.0"
     inkscape:pageshadow="2"
     inkscape:zoom="1.4142136"
     inkscape:cx="306.34952"
     inkscape:cy="222.65414"
     inkscape:current-layer="g3864"
     inkscape:document-units="px"
     showgrid="false"
     inkscape:window-width="1618"
     inkscape:window-height="1028"
     inkscape:window-x="54"
     inkscape:window-y="-8"
     inkscape:window-maximized="1"
     showguides="false"
     inkscape:guide-bbox="true"
     objecttolerance="20"
     fit-margin-top="0"
     fit-margin-left="0"
     fit-margin-right="0"
     fit-margin-bottom="0"
     inkscape:showpageshadow="false"
     showborder="true">
    <sodipodi:guide
       orientation="1,0"
       position="317.48352,207.04712"
       id="guide3048" />
    <sodipodi:guide
       orientation="1,0"
       position="387.48352,153.29712"
       id="guide3050" />
    <sodipodi:guide
       orientation="1,0"
       position="247.48352,187.04712"
       id="guide3052" />
    <sodipodi:guide
       orientation="0,1"
       position="230.27188,176.18345"
       id="guide3040" />
    <sodipodi:guide
       orientation="0,1"
       position="290.0224,105.82632"
       id="guide3042" />
  </sodipodi:namedview>
  <metadata
     id="metadata2990">
    <rdf:RDF>
      <cc:Work
         rdf:about="">
        <dc:format>image/svg+xml</dc:format>
        <dc:type
           rdf:resource="http://purl.org/dc/dcmitype/StillImage" />
        <dc:title />
        <cc:license
           rdf:resource="http://creativecommons.org/licenses/by-nc-sa/3.0/" />
      </cc:Work>
      <cc:License
         rdf:about="http://creativecommons.org/licenses/by-nc-sa/3.0/">
        <cc:permits
           rdf:resource="http://creativecommons.org/ns#Reproduction" />
        <cc:permits
           rdf:resource="http://creativecommons.org/ns#Distribution" />
        <cc:requires
           rdf:resource="http://creativecommons.org/ns#Notice" />
        <cc:requires
           rdf:resource="http://creativecommons.org/ns#Attribution" />
        <cc:prohibits
           rdf:resource="http://creativecommons.org/ns#CommercialUse" />
        <cc:permits
           rdf:resource="http://creativecommons.org/ns#DerivativeWorks" />
        <cc:requires
           rdf:resource="http://creativecommons.org/ns#ShareAlike" />
      </cc:License>
    </rdf:RDF>
  </metadata>
  <g
     inkscape:groupmode="layer"
     id="layer2"
     inkscape:label="Trazo"
     transform="translate(-2.5164841,-106.54713)">
    <path
       style="fill:#3f51b5;fill-opacity:1;fill-rule:evenodd;stroke:none;filter:url(#filter4485)"
       d="m 50.016484,128.39088 c -13.7906,0 -23.73383,2.70821 -22.3125,6.09375 l 55.40625,132.03125 c 0.568847,1.35497 2.901995,2.58263 6.34375,3.59375 l 0,-2.0625 c 0,-11.04839 11.222306,-20.03125 25.062496,-20.03125 l 3.71875,0 0,-51.6875 c 0,-30.95746 27.91708,-56.0625 62.34375,-56.0625 l 22.8125,0 c 34.42579,0 62.34375,25.10504 62.34375,56.0625 l 0,51.6875 3.71875,0 c 13.8402,0 25.0625,8.98286 25.0625,20.03125 l 0,4.5625 340.46875,0 c 13.7906,0 23.73383,-2.70821 22.3125,-6.09375 L 601.89148,134.48463 c -1.42133,-3.38554 -13.67815,-6.09375 -27.46875,-6.09375 l -524.406246,0 z"
       id="path3862" />
    <path
       style="fill:#3f51b5;fill-opacity:1;fill-rule:evenodd;stroke:none;filter:url(#filter4485)"
       d="m 294.51648,272.60963 -183.9375,0 c -8.27129,0 -15.967135,-0.98472 -21.124996,-2.5 l 0,121.59375 c 0,11.04839 11.222306,20 25.062496,20 l 154.9375,0 c 13.8402,0 25.0625,-8.95161 25.0625,-20 l 0,-119.09375 z"
       id="path3860" />
    <path
       style="fill:#ffffff;fill-opacity:1;fill-rule:evenodd;stroke:none;filter:url(#filter3878);opacity:1"
       d="m 184.98523,163.20338 c -21.06495,0 -38.125,16.36463 -38.125,36.5625 l 0,48.25 90.25,0 0,-48.25 c 0,-20.19787 -17.06004,-36.5625 -38.125,-36.5625 l -14,0 z"
       id="rect4164" />
    <path
       id="path4152"
       d="m 180.59375,140.28125 c -34.42667,0 -62.34375,25.10504 -62.34375,56.0625 l 0,51.6875 -3.71875,0 c -13.8402,0 -25.0625,8.98286 -25.0625,20.03125 l 0,123.65625 c 0,11.04839 11.2223,20 25.0625,20 l 154.9375,0 c 13.8402,0 25.0625,-8.95161 25.0625,-20 l 0,-123.65625 c 0,-11.04839 -11.2223,-20.03125 -25.0625,-20.03125 l -3.71875,0 0,-51.6875 c 0,-30.95746 -27.91796,-56.0625 -62.34375,-56.0625 l -22.8125,0 z m 4.40625,22.9375 14,0 c 21.06496,0 38.125,16.36463 38.125,36.5625 l 0,48.25 -90.25,0 0,-48.25 c 0,-20.19787 17.06004,-36.5625 38.125,-36.5625 z"
       style="fill:#e6e6e6;stroke:#ffffff;stroke-width:1;stroke-miterlimit:4;stroke-dasharray:none;stroke-linejoin:round;stroke-opacity:1"
       inkscape:connector-curvature="0" />
    <path
       d="m 106.87694,320.46931 q -1.35333,-0.76493 -1.7505,-2.28006 -0.39717,-1.51514 0.36775,-2.86846 l 1.88289,-3.23621 q 0.76492,-1.35333 2.28006,-1.7505 1.51513,-0.39717 2.86846,0.36775 l 7.82574,4.50128 0,-9.03197 q 0,-1.52985 1.11797,-2.64781 1.11796,-1.11797 2.6478,-1.11797 l 3.76578,0 q 1.52984,0 2.64781,1.11797 1.11796,1.11796 1.11796,2.64781 l 0,9.03197 7.82575,-4.50128 q 1.35332,-0.76492 2.86846,-0.36775 1.51514,0.39717 2.28006,1.7505 l 1.88288,3.23621 q 0.76493,1.35332 0.36776,2.86846 -0.39717,1.51513 -1.7505,2.28006 L 137.29732,325 l 7.82575,4.5307 q 1.35333,0.76492 1.7505,2.28005 0.39717,1.51514 -0.36776,2.86846 l -1.88288,3.23621 q -0.76492,1.35333 -2.28006,1.7505 -1.51514,0.39717 -2.86846,-0.36775 l -7.82575,-4.50128 0,9.03197 q 0,1.52985 -1.11796,2.64781 -1.11797,1.11797 -2.64781,1.11797 l -3.76578,0 q -1.52984,0 -2.6478,-1.11797 -1.11797,-1.11796 -1.11797,-2.64781 l 0,-9.03197 -7.82574,4.50128 q -1.35333,0.76492 -2.86846,0.36775 -1.51514,-0.39717 -2.28006,-1.7505 l -1.88289,-3.23621 q -0.76492,-1.35332 -0.36775,-2.86846 0.39717,-1.51513 1.7505,-2.28005 L 114.70268,325 z"
       id="path3041"
       inkscape:connector-curvature="0"
       style="fill:#cccccc;fill-opacity:1;stroke:#cccccc;stroke-width:0.14366552;stroke-miterlimit:4;stroke-dasharray:none" />
    <path
       d="m 187.46931,344.12306 q -0.76492,1.35333 -2.28006,1.7505 -1.51513,0.39717 -2.86846,-0.36776 l -3.23621,-1.88288 q -1.35333,-0.76492 -1.75049,-2.28006 -0.39718,-1.51513 0.36774,-2.86846 l 4.50128,-7.82574 -9.03197,0 q -1.52984,0 -2.64781,-1.11797 -1.11797,-1.11796 -1.11797,-2.64781 l 0,-3.76577 q 0,-1.52984 1.11797,-2.64781 1.11797,-1.11796 2.64781,-1.11796 l 9.03197,0 -4.50128,-7.82575 q -0.76492,-1.35332 -0.36774,-2.86845 0.39716,-1.51514 1.75049,-2.28006 l 3.23621,-1.88289 q 1.35333,-0.76492 2.86846,-0.36775 1.51514,0.39717 2.28006,1.7505 l 4.53069,7.82574 4.5307,-7.82574 q 0.76492,-1.35333 2.28005,-1.7505 1.51514,-0.39717 2.86846,0.36775 l 3.23621,1.88289 q 1.35333,0.76492 1.7505,2.28006 0.39717,1.51513 -0.36775,2.86845 l -4.50128,7.82575 9.03197,0 q 1.52985,0 2.64782,1.11796 1.11796,1.11797 1.11796,2.64781 l 0,3.76577 q 0,1.52985 -1.11796,2.64781 -1.11797,1.11797 -2.64782,1.11797 l -9.03197,0 4.50128,7.82574 q 0.76492,1.35333 0.36775,2.86846 -0.39717,1.51514 -1.7505,2.28006 l -3.23621,1.88288 q -1.35332,0.76493 -2.86846,0.36776 -1.51513,-0.39717 -2.28005,-1.7505 L 192,336.29732 z"
       id="path3041-6"
       inkscape:connector-curvature="0"
       style="fill:#607d8b;fill-opacity:1;stroke:#cccccc;stroke-width:0.14366552;stroke-miterlimit:4;stroke-dasharray:none" />
    <path
       d="m 238.92424,320.46931 q -1.35333,-0.76492 -1.75049,-2.28006 -0.39717,-1.51513 0.36775,-2.86846 l 1.88288,-3.23621 q 0.76493,-1.35333 2.28006,-1.75049 1.51514,-0.39718 2.86846,0.36774 l 7.82575,4.50128 0,-9.03197 q 0,-1.52984 1.11796,-2.64781 1.11796,-1.11797 2.64781,-1.11797 l 3.76577,0 q 1.52984,0 2.64781,1.11797 1.11797,1.11797 1.11797,2.64781 l 0,9.03197 7.82574,-4.50128 q 1.35332,-0.76492 2.86846,-0.36774 1.51513,0.39716 2.28006,1.75049 l 1.88289,3.23621 q 0.76491,1.35333 0.36774,2.86846 -0.39717,1.51514 -1.75049,2.28006 L 269.34462,325 l 7.82575,4.5307 q 1.35332,0.76492 1.75049,2.28005 0.39717,1.51514 -0.36774,2.86846 l -1.88289,3.23621 q -0.76493,1.35333 -2.28006,1.7505 -1.51514,0.39717 -2.86846,-0.36775 l -7.82574,-4.50128 0,9.03197 q 0,1.52985 -1.11797,2.64781 -1.11797,1.11797 -2.64781,1.11797 l -3.76577,0 q -1.52985,0 -2.64781,-1.11797 -1.11796,-1.11796 -1.11796,-2.64781 l 0,-9.03197 -7.82575,4.50128 q -1.35332,0.76492 -2.86846,0.36775 -1.51513,-0.39717 -2.28006,-1.7505 l -1.88288,-3.23621 q -0.76492,-1.35332 -0.36775,-2.86846 0.39716,-1.51513 1.75049,-2.28005 L 246.74999,325 z"
       id="path3041-1"
       inkscape:connector-curvature="0"
       style="fill:#3f51b5;fill-opacity:1;stroke:#cccccc;stroke-width:0.14366552;stroke-miterlimit:4;stroke-dasharray:none" />
    <rect
       style="opacity:0.50000000000000000;fill:#ffffff;fill-opacity:1;fill-rule:evenodd;stroke:#cccccc;stroke-width:1.01193643000000000;stroke-linecap:round;stroke-linejoin:round;stroke-miterlimit:4;stroke-opacity:1;stroke-dasharray:none;stroke-dashoffset:0;filter:url(#filter3878)"
       id="rect3044"
       width="191.49452"
       height="68.371681"
       x="96.257629"
       y="291.35638"
       rx="15.806274"
       ry="14.576706" />
  </g>
  <g
     inkscape:groupmode="layer"
     id="layer3"
     inkscape:label="Texto Trayecto"
     transform="translate(-2.5164841,-106.54713)"
     style="display:inline">
    <g
       id="g3864">
      <g
         id="g4243">
        <g
           id="text4744"
           style="font-style:normal;font-weight:normal;font-size:40px;line-height:125%;font-family:Register;letter-spacing:0px;word-spacing:0px;fill:#ffffff;fill-opacity:1;stroke:none;filter:url(#filter3034-2)">
          <path
             id="path4182"
             style="font-style:italic;font-variant:normal;font-weight:normal;font-stretch:normal;font-size:56px;font-family:Register;-inkscape-font-specification:'Register Italic';letter-spacing:1.21000004px;fill:#ffffff;fill-opacity:1"
             d="m 301.5756,170.49813 -0.952,4.928 4.984,0 0.952,-4.928 -4.984,0 z m -1.232,6.216 -1.008,4.928 4.984,0 1.008,-4.928 -4.984,0 z m -1.232,6.216 -1.008,4.928 4.984,0 1.008,-4.928 -4.984,0 z m -1.232,6.216 -1.008,4.984 4.984,0 1.008,-4.984 -4.984,0 z m -1.288,6.216 -0.952,4.984 4.984,0 0.952,-4.984 -4.984,0 z m -1.232,6.216 -1.008,4.984 4.984,0 1.008,-4.984 -4.984,0 z m -1.232,6.216 -1.008,4.984 4.984,0 1.008,-4.984 -4.984,0 z m 11.2,-24.864 -1.008,4.928 4.984,0 1.008,-4.928 -4.984,0 z m -2.52,12.432 -0.952,4.984 4.984,0 0.952,-4.984 -4.984,0 z m 11.2,-24.864 -0.952,4.928 4.984,0 0.952,-4.928 -4.984,0 z m -1.232,6.216 -1.008,4.928 4.984,0 1.008,-4.928 -4.984,0 z m -1.232,6.216 -1.008,4.928 4.984,0 1.008,-4.928 -4.984,0 z m -1.232,6.216 -1.008,4.984 4.984,0 1.008,-4.984 -4.984,0 z m -1.288,6.216 -0.952,4.984 4.984,0 0.952,-4.984 -4.984,0 z m -1.232,6.216 -1.008,4.984 4.984,0 1.008,-4.984 -4.984,0 z m -1.232,6.216 -1.008,4.984 4.984,0 1.008,-4.984 -4.984,0 z m 11.2,-24.864 -1.008,4.928 4.984,0 1.008,-4.928 -4.984,0 z m -2.52,12.432 -0.952,4.984 4.984,0 0.952,-4.984 -4.984,0 z m -22.344,-12.432 -1.008,4.928 4.984,0 1.008,-4.928 -4.984,0 z m -2.52,12.432 -0.952,4.984 4.984,0 0.952,-4.984 -4.984,0 z" />
          <path
             id="path4184"
             style="font-style:italic;font-variant:normal;font-weight:normal;font-stretch:normal;font-size:56px;font-family:Register;-inkscape-font-specification:'Register Italic';letter-spacing:1.21000004px;fill:#ffffff;fill-opacity:1"
             d="m 326.52785,207.79413 -1.008,4.984 4.984,0 1.008,-4.984 -4.984,0 z m 3.752,-18.648 -1.008,4.984 4.984,0 1.008,-4.984 -4.984,0 z m 22.344,12.432 -1.008,4.984 4.984,0 1.008,-4.984 -4.984,0 z m -7.448,6.216 -1.008,4.984 4.984,0 1.008,-4.984 -4.984,0 z m 2.464,-12.432 -0.952,4.984 4.984,0 0.952,-4.984 -4.984,0 z m 2.52,-12.432 -1.008,4.928 4.984,0 1.008,-4.928 -4.984,0 z m -11.2,24.864 -1.008,4.984 4.984,0 1.008,-4.984 -4.984,0 z m 2.464,-12.432 -0.952,4.984 4.984,0 0.952,-4.984 -4.984,0 z m 2.52,-12.432 -1.008,4.928 4.984,0 1.008,-4.928 -4.984,0 z m -11.2,24.864 -1.008,4.984 4.984,0 1.008,-4.984 -4.984,0 z m 2.464,-12.432 -0.952,4.984 4.984,0 0.952,-4.984 -4.984,0 z m 2.52,-12.432 -1.008,4.928 4.984,0 1.008,-4.928 -4.984,0 z" />
          <path
             id="path4186"
             style="font-style:italic;font-variant:normal;font-weight:normal;font-stretch:normal;font-size:56px;font-family:Register;-inkscape-font-specification:'Register Italic';letter-spacing:1.21000004px;fill:#ffffff;fill-opacity:1"
             d="m 372.5921,201.57813 -1.008,4.984 4.984,0 1.008,-4.984 -4.984,0 z m -2.464,12.432 -1.008,4.984 4.984,0 1.008,-4.984 -4.984,0 z m 8.68,-12.432 -1.008,4.984 4.984,0 1.008,-4.984 -4.984,0 z m -2.464,12.432 -1.008,4.984 4.984,0 1.008,-4.984 -4.984,0 z m 8.68,-12.432 -1.008,4.984 4.984,0 1.008,-4.984 -4.984,0 z m -2.464,12.432 -1.008,4.984 4.984,0 1.008,-4.984 -4.984,0 z m 12.432,-31.08 -1.008,4.928 4.984,0 1.008,-4.928 -4.984,0 z m -1.232,6.216 -1.008,4.984 4.984,0 1.008,-4.984 -4.984,0 z m -1.288,6.216 -0.952,4.984 4.984,0 0.952,-4.984 -4.984,0 z m -1.232,6.216 -1.008,4.984 4.984,0 1.008,-4.984 -4.984,0 z m -1.232,6.216 -1.008,4.984 4.984,0 1.008,-4.984 -4.984,0 z m -19.88,-24.864 -1.008,4.928 4.984,0 1.008,-4.928 -4.984,0 z m -1.232,6.216 -1.008,4.984 4.984,0 1.008,-4.984 -4.984,0 z m -1.288,6.216 -0.952,4.984 4.984,0 0.952,-4.984 -4.984,0 z" />
          <path
             id="path4188"
             style="font-style:italic;font-variant:normal;font-weight:normal;font-stretch:normal;font-size:56px;font-family:Register;-inkscape-font-specification:'Register Italic';letter-spacing:1.21000004px;fill:#ffffff;fill-opacity:1"
             d="m 403.76035,207.79413 -1.008,4.984 4.984,0 1.008,-4.984 -4.984,0 z m 3.752,-18.648 -1.008,4.984 4.984,0 1.008,-4.984 -4.984,0 z m 22.344,12.432 -1.008,4.984 4.984,0 1.008,-4.984 -4.984,0 z m -7.448,6.216 -1.008,4.984 4.984,0 1.008,-4.984 -4.984,0 z m 2.464,-12.432 -0.952,4.984 4.984,0 0.952,-4.984 -4.984,0 z m 2.52,-12.432 -1.008,4.928 4.984,0 1.008,-4.928 -4.984,0 z m -11.2,24.864 -1.008,4.984 4.984,0 1.008,-4.984 -4.984,0 z m 2.464,-12.432 -0.952,4.984 4.984,0 0.952,-4.984 -4.984,0 z m 2.52,-12.432 -1.008,4.928 4.984,0 1.008,-4.928 -4.984,0 z m -11.2,24.864 -1.008,4.984 4.984,0 1.008,-4.984 -4.984,0 z m 2.464,-12.432 -0.952,4.984 4.984,0 0.952,-4.984 -4.984,0 z m 2.52,-12.432 -1.008,4.928 4.984,0 1.008,-4.928 -4.984,0 z" />
          <path
             id="path4190"
             style="font-style:italic;font-variant:normal;font-weight:normal;font-stretch:normal;font-size:56px;font-family:Register;-inkscape-font-specification:'Register Italic';letter-spacing:1.21000004px;fill:#ffffff;fill-opacity:1"
             d="m 471.8886,182.48213 -0.952,4.928 4.984,0 0.952,-4.928 -4.984,0 z m 1.288,-6.216 -1.008,4.928 4.984,0 1.008,-4.928 -4.984,0 z m -8.736,12.432 -1.008,4.984 4.984,0 1.008,-4.984 -4.984,0 z m 3.752,-18.648 -1.008,4.928 4.984,0 1.008,-4.928 -4.984,0 z m -9.968,18.648 -1.008,4.984 4.984,0 1.008,-4.984 -4.984,0 z m 3.752,-18.648 -1.008,4.928 4.984,0 1.008,-4.928 -4.984,0 z m -9.968,18.648 -1.008,4.984 4.984,0 1.008,-4.984 -4.984,0 z m 3.752,-18.648 -1.008,4.928 4.984,0 1.008,-4.928 -4.984,0 z m -13.664,37.296 -1.008,4.984 4.984,0 1.008,-4.984 -4.984,0 z m 1.232,-6.216 -1.008,4.984 4.984,0 1.008,-4.984 -4.984,0 z m 1.232,-6.216 -1.008,4.984 4.984,0 1.008,-4.984 -4.984,0 z m 1.232,-6.216 -1.008,4.984 4.984,0 1.008,-4.984 -4.984,0 z m 1.232,-6.216 -0.952,4.928 4.984,0 0.952,-4.928 -4.984,0 z m 1.288,-6.216 -1.008,4.928 4.984,0 1.008,-4.928 -4.984,0 z m 1.232,-6.216 -1.008,4.928 4.984,0 1.008,-4.928 -4.984,0 z" />
          <path
             id="path4192"
             style="font-style:italic;font-variant:normal;font-weight:normal;font-stretch:normal;font-size:56px;font-family:Register;-inkscape-font-specification:'Register Italic';letter-spacing:1.21000004px;fill:#ffffff;fill-opacity:1"
             d="m 492.19285,182.93013 -1.008,4.928 4.984,0 1.008,-4.928 -4.984,0 z m -2.52,12.432 -0.952,4.984 4.984,0 0.952,-4.984 -4.984,0 z m -2.464,12.432 -1.008,4.984 4.984,0 1.008,-4.984 -4.984,0 z m 11.2,-24.864 -1.008,4.928 4.984,0 1.008,-4.928 -4.984,0 z m -2.52,12.432 -0.952,4.984 4.984,0 0.952,-4.984 -4.984,0 z m -2.464,12.432 -1.008,4.984 4.984,0 1.008,-4.984 -4.984,0 z m 11.2,-24.864 -1.008,4.928 4.984,0 1.008,-4.928 -4.984,0 z m -2.52,12.432 -0.952,4.984 4.984,0 0.952,-4.984 -4.984,0 z m -2.464,12.432 -1.008,4.984 4.984,0 1.008,-4.984 -4.984,0 z m 9.968,-18.648 -1.008,4.984 4.984,0 1.008,-4.984 -4.984,0 z m -1.288,6.216 -0.952,4.984 4.984,0 0.952,-4.984 -4.984,0 z m -1.232,6.216 -1.008,4.984 4.984,0 1.008,-4.984 -4.984,0 z m -1.232,6.216 -1.008,4.984 4.984,0 1.008,-4.984 -4.984,0 z m -23.632,-6.216 -1.008,4.984 4.984,0 1.008,-4.984 -4.984,0 z" />
          <path
             id="path4194"
             style="font-style:italic;font-variant:normal;font-weight:normal;font-stretch:normal;font-size:56px;font-family:Register;-inkscape-font-specification:'Register Italic';letter-spacing:1.21000004px;fill:#ffffff;fill-opacity:1"
             d="m 519.6091,207.79413 -1.008,4.984 4.984,0 1.008,-4.984 -4.984,0 z m 3.752,-18.648 -1.008,4.984 4.984,0 1.008,-4.984 -4.984,0 z m 22.344,12.432 -1.008,4.984 4.984,0 1.008,-4.984 -4.984,0 z m -7.448,6.216 -1.008,4.984 4.984,0 1.008,-4.984 -4.984,0 z m 2.464,-12.432 -0.952,4.984 4.984,0 0.952,-4.984 -4.984,0 z m 2.52,-12.432 -1.008,4.928 4.984,0 1.008,-4.928 -4.984,0 z m -11.2,24.864 -1.008,4.984 4.984,0 1.008,-4.984 -4.984,0 z m 2.464,-12.432 -0.952,4.984 4.984,0 0.952,-4.984 -4.984,0 z m 2.52,-12.432 -1.008,4.928 4.984,0 1.008,-4.928 -4.984,0 z m -11.2,24.864 -1.008,4.984 4.984,0 1.008,-4.984 -4.984,0 z m 2.464,-12.432 -0.952,4.984 4.984,0 0.952,-4.984 -4.984,0 z m 2.52,-12.432 -1.008,4.928 4.984,0 1.008,-4.928 -4.984,0 z" />
          <path
             id="path4196"
             style="font-style:italic;font-variant:normal;font-weight:normal;font-stretch:normal;font-size:56px;font-family:Register;-inkscape-font-specification:'Register Italic';letter-spacing:1.21000004px;fill:#ffffff;fill-opacity:1"
             d="m 558.22535,207.79413 -1.008,4.984 4.984,0 1.008,-4.984 -4.984,0 z m 3.752,-18.648 -1.008,4.984 4.984,0 1.008,-4.984 -4.984,0 z m 22.344,12.432 -1.008,4.984 4.984,0 1.008,-4.984 -4.984,0 z m -7.448,6.216 -1.008,4.984 4.984,0 1.008,-4.984 -4.984,0 z m 2.464,-12.432 -0.952,4.984 4.984,0 0.952,-4.984 -4.984,0 z m 2.52,-12.432 -1.008,4.928 4.984,0 1.008,-4.928 -4.984,0 z m -11.2,24.864 -1.008,4.984 4.984,0 1.008,-4.984 -4.984,0 z m 2.464,-12.432 -0.952,4.984 4.984,0 0.952,-4.984 -4.984,0 z m 2.52,-12.432 -1.008,4.928 4.984,0 1.008,-4.928 -4.984,0 z m -11.2,24.864 -1.008,4.984 4.984,0 1.008,-4.984 -4.984,0 z m 2.464,-12.432 -0.952,4.984 4.984,0 0.952,-4.984 -4.984,0 z m 2.52,-12.432 -1.008,4.928 4.984,0 1.008,-4.928 -4.984,0 z" />
        </g>
        <g
           id="text5277"
           style="font-style:normal;font-weight:normal;font-size:12px;line-height:125%;font-family:Sans;letter-spacing:0px;word-spacing:0px;opacity:0.85;fill:#ffffff;fill-opacity:1;stroke:none">
          <path
             id="path4199"
             style="font-style:normal;font-variant:normal;font-weight:normal;font-stretch:normal;font-family:Roboto;-inkscape-font-specification:Roboto;fill:#ffffff;fill-opacity:1"
             d="m 442.47137,231.45978 q 0,-0.58008 -0.41601,-0.97266 -0.41602,-0.39258 -1.46484,-0.66797 -1.30079,-0.32226 -2.03321,-0.94922 -0.72656,-0.62695 -0.72656,-1.57617 0,-1.00195 0.78516,-1.66992 0.78515,-0.66797 2.03906,-0.66797 1.34765,0 2.14453,0.76758 0.80273,0.76172 0.7793,1.78125 l -0.0176,0.0352 -1.10156,0 q 0,-0.72657 -0.50977,-1.20118 -0.50391,-0.47461 -1.29492,-0.47461 -0.8086,0 -1.24219,0.39258 -0.42773,0.39258 -0.42773,1.01953 0,0.55664 0.46875,0.93164 0.47461,0.36915 1.53515,0.6504 1.28907,0.33398 1.96289,0.98437 0.67383,0.65039 0.67383,1.60547 0,1.03125 -0.81445,1.6582 -0.8086,0.62696 -2.11524,0.62696 -1.23632,0 -2.18554,-0.69141 -0.94336,-0.69141 -0.91407,-1.85156 l 0.0117,-0.0352 1.10157,0 q 0,0.80273 0.60937,1.24219 0.60938,0.43359 1.37695,0.43359 0.82032,0 1.29493,-0.36914 0.48046,-0.36914 0.48046,-1.00195 z" />
          <path
             id="path4201"
             style="font-style:normal;font-variant:normal;font-weight:normal;font-stretch:normal;font-family:Roboto;-inkscape-font-specification:Roboto;fill:#ffffff;fill-opacity:1"
             d="m 447.04169,231.26056 0.20508,0.79687 0.0351,0 1.5586,-4.78711 1.2832,0 -2.66602,7.3125 q -0.24023,0.63868 -0.6914,1.11329 -0.44532,0.47461 -1.20703,0.47461 -0.14063,0 -0.35743,-0.0352 -0.21679,-0.0293 -0.33398,-0.0586 l 0.11719,-0.90821 q -0.0352,-0.006 0.20507,0.0117 0.2461,0.0176 0.31055,0.0176 0.36914,0 0.60352,-0.32813 0.23437,-0.32812 0.39258,-0.72656 l 0.27539,-0.66211 -2.35547,-6.21094 1.28906,0 1.33594,3.99024 z" />
          <path
             id="path4203"
             style="font-style:normal;font-variant:normal;font-weight:normal;font-stretch:normal;font-family:Roboto;-inkscape-font-specification:Roboto;fill:#ffffff;fill-opacity:1"
             d="m 454.83466,231.90509 q 0,-0.38086 -0.29297,-0.62109 -0.28711,-0.24024 -1.09571,-0.42188 -1.11914,-0.24023 -1.72265,-0.67383 -0.59766,-0.43359 -0.59766,-1.16015 0,-0.77344 0.65625,-1.32422 0.66211,-0.55078 1.71094,-0.55078 1.07812,0 1.74609,0.58593 0.66797,0.58594 0.63867,1.36524 l -0.0117,0.0352 -1.10157,0 q 0,-0.41016 -0.36328,-0.74415 -0.35742,-0.33398 -0.9082,-0.33398 -0.60938,0 -0.91406,0.27539 -0.29883,0.27539 -0.29883,0.65625 0,0.375 0.25781,0.58008 0.26367,0.20508 1.07813,0.375 1.16601,0.24609 1.76953,0.69726 0.60351,0.45118 0.60351,1.17774 0,0.84375 -0.68554,1.37695 -0.67969,0.53321 -1.78125,0.53321 -1.21289,0 -1.91016,-0.61524 -0.69727,-0.61523 -0.66211,-1.43555 l 0.0117,-0.0352 1.10156,0 q 0.0293,0.61523 0.45703,0.90234 0.42774,0.28125 1.00196,0.28125 0.61523,0 0.96093,-0.25781 0.35157,-0.26367 0.35157,-0.66797 z" />
          <path
             id="path4205"
             style="font-style:normal;font-variant:normal;font-weight:normal;font-stretch:normal;font-family:Roboto;-inkscape-font-specification:Roboto;fill:#ffffff;fill-opacity:1"
             d="m 459.03583,225.74103 0,1.52929 1.20117,0 0,0.85547 -1.20117,0 0,3.84961 q 0,0.44532 0.18164,0.62696 0.1875,0.18164 0.49219,0.18164 0.0996,0 0.22265,-0.0234 0.12305,-0.0293 0.20508,-0.0586 l 0.1582,0.79101 q -0.1289,0.10547 -0.38086,0.16992 -0.25195,0.0703 -0.49804,0.0703 -0.70313,0 -1.11914,-0.42188 -0.41602,-0.42773 -0.41602,-1.33594 l 0,-3.84961 -1.00781,0 0,-0.85547 1.00781,0 0,-1.52929 1.1543,0 z" />
          <path
             id="path4207"
             style="font-style:normal;font-variant:normal;font-weight:normal;font-stretch:normal;font-family:Roboto;-inkscape-font-specification:Roboto;fill:#ffffff;fill-opacity:1"
             d="m 464.11005,233.73322 q -1.36524,0 -2.13282,-0.87305 -0.76171,-0.87305 -0.76171,-2.29688 l 0,-0.25781 q 0,-1.36523 0.78515,-2.25586 0.79102,-0.89648 1.92774,-0.89648 1.27148,0 1.90429,0.79101 0.63867,0.79102 0.63867,2.10352 l 0,0.60937 -4.05468,0 -0.0176,0.0293 q 0,0.95508 0.42187,1.55273 0.42188,0.5918 1.28907,0.5918 0.58593,0 1.02539,-0.16406 0.44531,-0.16992 0.76172,-0.46289 l 0.45117,0.75 q -0.33985,0.32812 -0.89649,0.55664 -0.55664,0.22266 -1.34179,0.22266 z m -0.18164,-5.67188 q -0.60352,0 -1.00196,0.46875 -0.39258,0.46289 -0.48047,1.18945 l 0.0117,0.0293 2.85938,0 0,-0.0937 q 0,-0.69141 -0.33985,-1.14258 -0.33984,-0.45117 -1.04882,-0.45117 z" />
          <path
             id="path4209"
             style="font-style:normal;font-variant:normal;font-weight:normal;font-stretch:normal;font-family:Roboto;-inkscape-font-specification:Roboto;fill:#ffffff;fill-opacity:1"
             d="m 468.79755,227.27032 0.082,0.83204 q 0.31054,-0.45118 0.78515,-0.69727 0.48047,-0.25195 1.11329,-0.25195 0.63281,0 1.08398,0.29297 0.45703,0.29296 0.68555,0.8789 0.30468,-0.54492 0.79101,-0.85547 0.49219,-0.3164 1.14844,-0.3164 0.9668,0 1.5293,0.66797 0.5625,0.66211 0.5625,1.99804 l 0,3.79102 -1.1543,0 0,-3.80274 q 0,-0.9375 -0.32227,-1.32421 -0.32226,-0.39258 -0.96093,-0.39258 -0.5918,0 -0.96094,0.41015 -0.36328,0.41016 -0.42774,1.03711 l 0,0.0469 0,4.02539 -1.16015,0 0,-3.80274 q 0,-0.89062 -0.33399,-1.30078 -0.32812,-0.41601 -0.94921,-0.41601 -0.52735,0 -0.86719,0.21679 -0.33985,0.2168 -0.52149,0.60938 l 0,4.69336 -1.15429,0 0,-6.33985 1.03125,0 z" />
          <path
             id="path4211"
             style="font-style:normal;font-variant:normal;font-weight:normal;font-stretch:normal;font-family:Roboto;-inkscape-font-specification:Roboto;fill:#ffffff;fill-opacity:1"
             d="m 481.95184,231.90509 q 0,-0.38086 -0.29297,-0.62109 -0.2871,-0.24024 -1.0957,-0.42188 -1.11914,-0.24023 -1.72265,-0.67383 -0.59766,-0.43359 -0.59766,-1.16015 0,-0.77344 0.65625,-1.32422 0.66211,-0.55078 1.71094,-0.55078 1.07812,0 1.74609,0.58593 0.66797,0.58594 0.63867,1.36524 l -0.0117,0.0352 -1.10156,0 q 0,-0.41016 -0.36328,-0.74415 -0.35742,-0.33398 -0.9082,-0.33398 -0.60938,0 -0.91407,0.27539 -0.29882,0.27539 -0.29882,0.65625 0,0.375 0.25781,0.58008 0.26367,0.20508 1.07812,0.375 1.16602,0.24609 1.76953,0.69726 0.60352,0.45118 0.60352,1.17774 0,0.84375 -0.68555,1.37695 -0.67968,0.53321 -1.78125,0.53321 -1.21289,0 -1.91015,-0.61524 -0.69727,-0.61523 -0.66211,-1.43555 l 0.0117,-0.0352 1.10156,0 q 0.0293,0.61523 0.45703,0.90234 0.42773,0.28125 1.00195,0.28125 0.61524,0 0.96094,-0.25781 0.35156,-0.26367 0.35156,-0.66797 z" />
          <path
             id="path4213"
             style="font-style:normal;font-variant:normal;font-weight:normal;font-stretch:normal;font-family:Roboto;-inkscape-font-specification:Roboto;fill:#ffffff;fill-opacity:1"
             d="m 488.83661,230.18829 0,3.42188 -1.1543,0 0,-8.53125 3.26367,0 q 1.36524,0 2.1211,0.70312 0.76172,0.70313 0.76172,1.85157 0,1.16015 -0.76172,1.85742 -0.75586,0.69726 -2.1211,0.69726 l -2.10937,0 z m 0,-0.90234 2.10937,0 q 0.86719,0 1.29493,-0.46289 0.42773,-0.46875 0.42773,-1.17774 0,-0.70898 -0.43359,-1.18359 -0.42774,-0.47461 -1.28907,-0.47461 l -2.10937,0 0,3.29883 z" />
          <path
             id="path4215"
             style="font-style:normal;font-variant:normal;font-weight:normal;font-stretch:normal;font-family:Roboto;-inkscape-font-specification:Roboto;fill:#ffffff;fill-opacity:1"
             d="m 498.99091,233.61017 q -0.0586,-0.28711 -0.0937,-0.50391 -0.0293,-0.22265 -0.0352,-0.44531 -0.32227,0.45703 -0.84375,0.76758 -0.51563,0.30469 -1.11328,0.30469 -0.99024,0 -1.51172,-0.50391 -0.51563,-0.50977 -0.51563,-1.40039 0,-0.9082 0.73243,-1.41797 0.73828,-0.51563 1.99804,-0.51563 l 1.25391,0 0,-0.62695 q 0,-0.55664 -0.33984,-0.8789 -0.33985,-0.32813 -0.96094,-0.32813 -0.5625,0 -0.9082,0.28125 -0.34571,0.28125 -0.34571,0.67383 l -1.0957,0.0117 -0.0117,-0.0352 q -0.041,-0.69141 0.64453,-1.26562 0.69141,-0.57422 1.78125,-0.57422 1.07813,0 1.73438,0.55078 0.65625,0.54492 0.65625,1.57617 l 0,3.05273 q 0,0.33985 0.0351,0.65625 0.0352,0.31641 0.12891,0.6211 l -1.18945,0 z m -1.91602,-0.84375 q 0.62695,0 1.13086,-0.32227 0.50391,-0.32226 0.65625,-0.73828 l 0,-1.03125 -1.29492,0 q -0.69727,0 -1.11914,0.35156 -0.41602,0.35157 -0.41602,0.82618 0,0.42187 0.26367,0.66796 0.26368,0.2461 0.7793,0.2461 z" />
          <path
             id="path4217"
             style="font-style:normal;font-variant:normal;font-weight:normal;font-stretch:normal;font-family:Roboto;-inkscape-font-specification:Roboto;fill:#ffffff;fill-opacity:1"
             d="m 505.38934,231.90509 q 0,-0.38086 -0.29297,-0.62109 -0.2871,-0.24024 -1.0957,-0.42188 -1.11914,-0.24023 -1.72265,-0.67383 -0.59766,-0.43359 -0.59766,-1.16015 0,-0.77344 0.65625,-1.32422 0.66211,-0.55078 1.71094,-0.55078 1.07812,0 1.74609,0.58593 0.66797,0.58594 0.63867,1.36524 l -0.0117,0.0352 -1.10156,0 q 0,-0.41016 -0.36328,-0.74415 -0.35742,-0.33398 -0.9082,-0.33398 -0.60938,0 -0.91407,0.27539 -0.29882,0.27539 -0.29882,0.65625 0,0.375 0.25781,0.58008 0.26367,0.20508 1.07812,0.375 1.16602,0.24609 1.76953,0.69726 0.60352,0.45118 0.60352,1.17774 0,0.84375 -0.68555,1.37695 -0.67968,0.53321 -1.78125,0.53321 -1.21289,0 -1.91015,-0.61524 -0.69727,-0.61523 -0.66211,-1.43555 l 0.0117,-0.0352 1.10156,0 q 0.0293,0.61523 0.45703,0.90234 0.42773,0.28125 1.00195,0.28125 0.61524,0 0.96094,-0.25781 0.35156,-0.26367 0.35156,-0.66797 z" />
          <path
             id="path4219"
             style="font-style:normal;font-variant:normal;font-weight:normal;font-stretch:normal;font-family:Roboto;-inkscape-font-specification:Roboto;fill:#ffffff;fill-opacity:1"
             d="m 511.67059,231.90509 q 0,-0.38086 -0.29297,-0.62109 -0.2871,-0.24024 -1.0957,-0.42188 -1.11914,-0.24023 -1.72265,-0.67383 -0.59766,-0.43359 -0.59766,-1.16015 0,-0.77344 0.65625,-1.32422 0.66211,-0.55078 1.71094,-0.55078 1.07812,0 1.74609,0.58593 0.66797,0.58594 0.63867,1.36524 l -0.0117,0.0352 -1.10156,0 q 0,-0.41016 -0.36328,-0.74415 -0.35742,-0.33398 -0.9082,-0.33398 -0.60938,0 -0.91407,0.27539 -0.29882,0.27539 -0.29882,0.65625 0,0.375 0.25781,0.58008 0.26367,0.20508 1.07812,0.375 1.16602,0.24609 1.76953,0.69726 0.60352,0.45118 0.60352,1.17774 0,0.84375 -0.68555,1.37695 -0.67968,0.53321 -1.78125,0.53321 -1.21289,0 -1.91015,-0.61524 -0.69727,-0.61523 -0.66211,-1.43555 l 0.0117,-0.0352 1.10156,0 q 0.0293,0.61523 0.45703,0.90234 0.42773,0.28125 1.00195,0.28125 0.61524,0 0.96094,-0.25781 0.35156,-0.26367 0.35156,-0.66797 z" />
          <path
             id="path4221"
             style="font-style:normal;font-variant:normal;font-weight:normal;font-stretch:normal;font-family:Roboto;-inkscape-font-specification:Roboto;fill:#ffffff;fill-opacity:1"
             d="m 515.88934,231.30157 0.14649,0.81446 0.0351,0 0.15235,-0.81446 1.26562,-4.03125 0.92578,0 1.27149,4.03125 0.16406,0.90821 0.0352,0 0.1875,-0.90821 0.9375,-4.03125 1.20703,0 -1.83985,6.33985 -0.93164,0 -1.2539,-3.86133 -0.24024,-1.00781 -0.0351,0 -0.22266,1.00781 -1.23047,3.86133 -0.93164,0 -1.83984,-6.33985 1.20117,0 0.99609,4.03125 z" />
          <path
             id="path4223"
             style="font-style:normal;font-variant:normal;font-weight:normal;font-stretch:normal;font-family:Roboto;-inkscape-font-specification:Roboto;fill:#ffffff;fill-opacity:1"
             d="m 523.09052,230.38165 q 0,-1.40625 0.76171,-2.31445 0.76172,-0.91406 2.06836,-0.91406 1.31836,0 2.08008,0.9082 0.76758,0.9082 0.76758,2.32031 l 0,0.12891 q 0,1.41797 -0.76172,2.32031 -0.76172,0.90235 -2.07422,0.90235 -1.3125,0 -2.08008,-0.90235 -0.76171,-0.9082 -0.76171,-2.32031 l 0,-0.12891 z m 1.15429,0.12891 q 0,1.00781 0.42188,1.66406 0.42773,0.65625 1.26562,0.65625 0.82617,0 1.25391,-0.65625 0.42773,-0.65625 0.42773,-1.66406 l 0,-0.12891 q 0,-0.99609 -0.43359,-1.6582 -0.42774,-0.66211 -1.25977,-0.66211 -0.82617,0 -1.2539,0.66211 -0.42188,0.66211 -0.42188,1.6582 l 0,0.12891 z" />
          <path
             id="path4225"
             style="font-style:normal;font-variant:normal;font-weight:normal;font-stretch:normal;font-family:Roboto;-inkscape-font-specification:Roboto;fill:#ffffff;fill-opacity:1"
             d="m 533.18036,228.28986 -0.5918,-0.0352 q -0.45703,0 -0.77344,0.2168 -0.31054,0.21679 -0.48046,0.60937 l 0,4.5293 -1.1543,0 0,-6.33985 1.03125,0 0.11133,0.92579 q 0.26953,-0.49219 0.66211,-0.76758 0.39843,-0.27539 0.91406,-0.27539 0.12891,0 0.24609,0.0234 0.11719,0.0176 0.19336,0.041 l -0.1582,1.07227 z" />
          <path
             id="path4227"
             style="font-style:normal;font-variant:normal;font-weight:normal;font-stretch:normal;font-family:Roboto;-inkscape-font-specification:Roboto;fill:#ffffff;fill-opacity:1"
             d="m 533.99481,230.55743 q 0,-1.52929 0.65039,-2.46679 0.65625,-0.9375 1.83399,-0.9375 0.55664,0 0.98437,0.20508 0.4336,0.20507 0.73828,0.59765 l 0,-3.48633 1.1543,0 0,9.14063 -0.88477,0 -0.17578,-0.80274 q -0.31054,0.45704 -0.76757,0.69141 -0.45704,0.23438 -1.06055,0.23438 -1.16016,0 -1.81641,-0.8379 -0.65625,-0.84375 -0.65625,-2.21484 l 0,-0.12305 z m 1.1543,0.12305 q 0,0.96094 0.39258,1.54102 0.39258,0.57422 1.21875,0.57422 0.51562,0 0.86718,-0.23438 0.35157,-0.23437 0.57422,-0.65625 l 0,-2.95898 q -0.22265,-0.39258 -0.58007,-0.6211 -0.35157,-0.23437 -0.84961,-0.23437 -0.83204,0 -1.23047,0.68554 -0.39258,0.68555 -0.39258,1.78125 l 0,0.12305 z" />
          <path
             id="path4229"
             style="font-style:normal;font-variant:normal;font-weight:normal;font-stretch:normal;font-family:Roboto;-inkscape-font-specification:Roboto;fill:#ffffff;fill-opacity:1"
             d="m 548.44403,232.01056 0.0352,0 2.72461,-6.93164 1.43554,0 0,8.53125 -1.15429,0 0,-6.39258 -0.0352,-0.006 -2.58398,6.39844 -0.80274,0 -2.66015,-6.60938 -0.0352,0.006 0,6.60352 -1.1543,0 0,-8.53125 1.51758,0 2.71289,6.93164 z" />
          <path
             id="path4231"
             style="font-style:normal;font-variant:normal;font-weight:normal;font-stretch:normal;font-family:Roboto;-inkscape-font-specification:Roboto;fill:#ffffff;fill-opacity:1"
             d="m 558.38153,233.61017 q -0.0586,-0.28711 -0.0937,-0.50391 -0.0293,-0.22265 -0.0352,-0.44531 -0.32226,0.45703 -0.84375,0.76758 -0.51562,0.30469 -1.11328,0.30469 -0.99023,0 -1.51172,-0.50391 -0.51562,-0.50977 -0.51562,-1.40039 0,-0.9082 0.73242,-1.41797 0.73828,-0.51563 1.99805,-0.51563 l 1.2539,0 0,-0.62695 q 0,-0.55664 -0.33984,-0.8789 -0.33984,-0.32813 -0.96094,-0.32813 -0.5625,0 -0.9082,0.28125 -0.3457,0.28125 -0.3457,0.67383 l -1.09571,0.0117 -0.0117,-0.0352 q -0.041,-0.69141 0.64453,-1.26562 0.6914,-0.57422 1.78125,-0.57422 1.07812,0 1.73437,0.55078 0.65625,0.54492 0.65625,1.57617 l 0,3.05273 q 0,0.33985 0.0352,0.65625 0.0351,0.31641 0.1289,0.6211 l -1.18945,0 z m -1.91601,-0.84375 q 0.62695,0 1.13085,-0.32227 0.50391,-0.32226 0.65625,-0.73828 l 0,-1.03125 -1.29492,0 q -0.69726,0 -1.11914,0.35156 -0.41601,0.35157 -0.41601,0.82618 0,0.42187 0.26367,0.66796 0.26367,0.2461 0.7793,0.2461 z" />
          <path
             id="path4233"
             style="font-style:normal;font-variant:normal;font-weight:normal;font-stretch:normal;font-family:Roboto;-inkscape-font-specification:Roboto;fill:#ffffff;fill-opacity:1"
             d="m 562.12567,227.27032 0.082,0.94336 q 0.31641,-0.5039 0.79102,-0.77929 0.48047,-0.28125 1.08984,-0.28125 1.02539,0 1.58789,0.60351 0.5625,0.59766 0.5625,1.85157 l 0,4.00195 -1.15429,0 0,-3.97852 q 0,-0.83789 -0.33399,-1.18945 -0.32812,-0.35156 -1.00781,-0.35156 -0.5332,0 -0.9082,0.21679 -0.36914,0.21094 -0.58594,0.59766 l 0,4.70508 -1.1543,0 0,-6.33985 1.03125,0 z" />
          <path
             id="path4235"
             style="font-style:normal;font-variant:normal;font-weight:normal;font-stretch:normal;font-family:Roboto;-inkscape-font-specification:Roboto;fill:#ffffff;fill-opacity:1"
             d="m 571.81122,233.61017 q -0.0586,-0.28711 -0.0937,-0.50391 -0.0293,-0.22265 -0.0352,-0.44531 -0.32226,0.45703 -0.84375,0.76758 -0.51562,0.30469 -1.11328,0.30469 -0.99023,0 -1.51172,-0.50391 -0.51562,-0.50977 -0.51562,-1.40039 0,-0.9082 0.73242,-1.41797 0.73828,-0.51563 1.99805,-0.51563 l 1.2539,0 0,-0.62695 q 0,-0.55664 -0.33984,-0.8789 -0.33985,-0.32813 -0.96094,-0.32813 -0.5625,0 -0.9082,0.28125 -0.34571,0.28125 -0.34571,0.67383 l -1.0957,0.0117 -0.0117,-0.0352 q -0.041,-0.69141 0.64453,-1.26562 0.69141,-0.57422 1.78125,-0.57422 1.07813,0 1.73438,0.55078 0.65625,0.54492 0.65625,1.57617 l 0,3.05273 q 0,0.33985 0.0352,0.65625 0.0352,0.31641 0.1289,0.6211 l -1.18945,0 z m -1.91602,-0.84375 q 0.62696,0 1.13086,-0.32227 0.50391,-0.32226 0.65625,-0.73828 l 0,-1.03125 -1.29492,0 q -0.69727,0 -1.11914,0.35156 -0.41602,0.35157 -0.41602,0.82618 0,0.42187 0.26368,0.66796 0.26367,0.2461 0.77929,0.2461 z" />
          <path
             id="path4237"
             style="font-style:normal;font-variant:normal;font-weight:normal;font-stretch:normal;font-family:Roboto;-inkscape-font-specification:Roboto;fill:#ffffff;fill-opacity:1"
             d="m 574.31903,230.55743 q 0,-1.52929 0.65039,-2.46679 0.65625,-0.9375 1.82813,-0.9375 0.60351,0 1.06054,0.24609 0.45703,0.24024 0.76758,0.69727 l 0.14063,-0.82618 0.91992,0 0,6.375 q 0,1.21875 -0.70899,1.86915 -0.70898,0.65625 -2.04492,0.65625 -0.45703,0 -0.99023,-0.12891 -0.52735,-0.12305 -0.93164,-0.33984 l 0.17578,-0.89649 q 0.33398,0.17578 0.80273,0.28125 0.47461,0.11133 0.93164,0.11133 0.84375,0 1.22461,-0.38672 0.38672,-0.38086 0.38672,-1.16602 l 0,-0.7207 q -0.31055,0.39844 -0.74414,0.60352 -0.43359,0.20508 -1.00195,0.20508 -1.16016,0 -1.81641,-0.8379 -0.65039,-0.84375 -0.65039,-2.21484 l 0,-0.12305 z m 1.1543,0.12305 q 0,0.95508 0.39258,1.53516 0.39257,0.58008 1.21289,0.58008 0.52148,0 0.87304,-0.23438 0.35157,-0.24023 0.58008,-0.67383 l 0,-2.91797 q -0.22265,-0.40429 -0.58008,-0.63867 -0.35742,-0.24023 -0.86132,-0.24023 -0.82618,0 -1.22461,0.68554 -0.39258,0.68555 -0.39258,1.78125 l 0,0.12305 z" />
          <path
             id="path4239"
             style="font-style:normal;font-variant:normal;font-weight:normal;font-stretch:normal;font-family:Roboto;-inkscape-font-specification:Roboto;fill:#ffffff;fill-opacity:1"
             d="m 583.96942,233.73322 q -1.36523,0 -2.13281,-0.87305 -0.76172,-0.87305 -0.76172,-2.29688 l 0,-0.25781 q 0,-1.36523 0.78516,-2.25586 0.79101,-0.89648 1.92773,-0.89648 1.27149,0 1.9043,0.79101 0.63867,0.79102 0.63867,2.10352 l 0,0.60937 -4.05469,0 -0.0176,0.0293 q 0,0.95508 0.42188,1.55273 0.42187,0.5918 1.28906,0.5918 0.58594,0 1.02539,-0.16406 0.44531,-0.16992 0.76172,-0.46289 l 0.45117,0.75 q -0.33984,0.32812 -0.89648,0.55664 -0.55664,0.22266 -1.3418,0.22266 z m -0.18164,-5.67188 q -0.60351,0 -1.00195,0.46875 -0.39258,0.46289 -0.48047,1.18945 l 0.0117,0.0293 2.85937,0 0,-0.0937 q 0,-0.69141 -0.33984,-1.14258 -0.33984,-0.45117 -1.04883,-0.45117 z" />
          <path
             id="path4241"
             style="font-style:normal;font-variant:normal;font-weight:normal;font-stretch:normal;font-family:Roboto;-inkscape-font-specification:Roboto;fill:#ffffff;fill-opacity:1"
             d="m 590.62567,228.28986 -0.5918,-0.0352 q -0.45703,0 -0.77343,0.2168 -0.31055,0.21679 -0.48047,0.60937 l 0,4.5293 -1.1543,0 0,-6.33985 1.03125,0 0.11133,0.92579 q 0.26953,-0.49219 0.66211,-0.76758 0.39844,-0.27539 0.91406,-0.27539 0.12891,0 0.2461,0.0234 0.11718,0.0176 0.19335,0.041 l -0.1582,1.07227 z" />
        </g>
      </g>
    </g>
  </g>
  <g
     style="display:none"
     transform="translate(-2.5164841,-106.54713)"
     inkscape:label="Texto Original"
     id="g4313"
     inkscape:groupmode="layer">
    <g
       id="g4315">
      <text
         sodipodi:linespacing="125%"
         id="text4317"
         y="213.39413"
         x="285.3916"
         style="font-style:normal;font-weight:normal;font-size:40px;line-height:125%;font-family:Register;letter-spacing:0px;word-spacing:0px;fill:#ffffff;fill-opacity:1;stroke:none;filter:url(#filter3034-2)"
         xml:space="preserve"><tspan
           style="font-style:italic;font-variant:normal;font-weight:normal;font-stretch:normal;font-size:56px;font-family:Register;-inkscape-font-specification:'Register Italic';letter-spacing:1.21000004px;fill:#ffffff;fill-opacity:1"
           y="213.39413"
           x="285.3916"
           id="tspan4319"
           sodipodi:role="line">#sysPass</tspan></text>
      <text
         xml:space="preserve"
         style="font-style:normal;font-weight:normal;font-size:12px;line-height:125%;font-family:Sans;letter-spacing:0px;word-spacing:0px;opacity:0.85;fill:#ffffff;fill-opacity:1;stroke:none"
         x="436.92841"
         y="233.61017"
         id="text4321"
         sodipodi:linespacing="125%"><tspan
           sodipodi:role="line"
           id="tspan4323"
           x="436.92841"
           y="233.61017"
           style="font-style:normal;font-variant:normal;font-weight:normal;font-stretch:normal;font-family:Roboto;-inkscape-font-specification:Roboto;fill:#ffffff;fill-opacity:1">Systems Password Manager</tspan></text>
    </g>
  </g>
</svg>
